# xmcd
#
# Track frame offsets:
#	150
#	17630
#	34301
#	50873
#	66632
#	84698
#	102296
#	116517
#	132559
#	149258
#	166010
#	186581
#	206978
#	228565
#
# Disc length: 3308 seconds
#
# Revision: 2
# Processed by: cddbd v1.5.2PL0 Copyright (c) Steve Scherf et al.
# Submitted via: EasyCDDAExtractor 15.3.0.1
#
DISCID=db0cea0e
DTITLE=Obie Bermudez - Solo Exitos
DYEAR=2007
DGENRE=Latin
TTITLE0=Cuando Se Ama A Una Mujer (Feat. Gustavo, Reyli, Fonseca)
TTITLE1=Decisiones Que Matan
TTITLE2=Antes
TTITLE3=Sigo Con Ella
TTITLE4=Todo El Año
TTITLE5=Como Pudiste
TTITLE6=Me Canse De Ti
TTITLE7=4 30 AM
TTITLE8=Celos
TTITLE9=Si Fuera Facil
TTITLE10=Todo El Año (Salsa Version)
TTITLE11=Antes (Salsa Version)
TTITLE12=Me Canse De Ti (Salsa Version)
TTITLE13=Celos (Salsa Version)
EXTD=
EXTT0=
EXTT1=
EXTT2=
EXTT3=
EXTT4=
EXTT5=
EXTT6=
EXTT7=
EXTT8=
EXTT9=
EXTT10=
EXTT11=
EXTT12=
EXTT13=
PLAYORDER=
